<svg xmlns="http://www.w3.org/2000/svg" viewBox="0 0 28.35 25.71"><defs><style>.cls-1{fill:#fff;}</style></defs><title>Ресурс 1</title><g id="Слой_2" data-name="Слой 2"><g id="Слой_1-2" data-name="Слой 1"><path class="cls-1" d="M29,3.3V26.37H.66V3.3a19.2,19.2,0,0,1,2,2.43c3.6,6.11,7.2,12.22,10.66,18.4,1.21,2.15,1.89,2.09,3,0,1.25-2.41,2.69-4.73,4.12-7C23.27,12.45,26.15,7.88,29,3.3Z" transform="translate(-0.66 -0.66)"/><path d="M29,3.3c-2.86,4.58-5.74,9.15-8.57,13.75-1.43,2.32-2.87,4.64-4.12,7.05-1.1,2.12-1.78,2.18-3,0C9.87,18,6.27,11.84,2.67,5.73a19.2,19.2,0,0,0-2-2.43V.66H29Zm-14.19.51C13.06,6.76,11.47,9.34,10,12a2.23,2.23,0,0,0-.12,1.85c1.48,2.76,3.1,5.45,4.94,8.63,1.84-3.16,3.46-5.84,5-8.58A2.26,2.26,0,0,0,19.68,12C18.2,9.39,16.61,6.8,14.82,3.81Zm6.7,7.8L26.33,3H16.8ZM3.26,3l4.9,8.63L12.83,3Z" transform="translate(-0.66 -0.66)"/><path class="cls-1" d="M14.82,3.81c1.79,3,3.38,5.58,4.86,8.22a2.26,2.26,0,0,1,.08,1.85c-1.49,2.74-3.11,5.42-5,8.58-1.84-3.18-3.46-5.87-4.94-8.63A2.23,2.23,0,0,1,10,12C11.47,9.34,13.06,6.76,14.82,3.81Z" transform="translate(-0.66 -0.66)"/><path class="cls-1" d="M21.52,11.61,16.8,3h9.53Z" transform="translate(-0.66 -0.66)"/><path class="cls-1" d="M3.26,3h9.57L8.16,11.6Z" transform="translate(-0.66 -0.66)"/></g></g></svg>